<?xml version="1.0" encoding="UTF-8" standalone="no"?>
<!DOCTYPE svg PUBLIC "-//W3C//DTD SVG 1.1//EN" "http://www.w3.org/Graphics/SVG/1.1/DTD/svg11.dtd">
<svg version="1.1" xmlns="http://www.w3.org/2000/svg" xmlns:xlink="http://www.w3.org/1999/xlink" preserveAspectRatio="xMidYMid meet" viewBox="0 0 256 256" width="256" height="256"><defs><path d="M243.53 118.86C248.19 123.72 248.19 131.39 243.53 136.24C220.48 160.27 159.67 223.68 136.62 247.71C132.07 252.45 124.5 252.45 119.95 247.71C96.9 223.68 36.09 160.27 13.04 136.24C8.38 131.39 8.38 123.72 13.04 118.86C36.09 94.83 96.9 31.43 119.95 7.4C124.5 2.66 132.07 2.66 136.62 7.4C159.67 31.43 220.48 94.83 243.53 118.86Z" id="d38hFiLVe"></path><path d="M86.16 42.84L96.55 32L185.35 124.6L174.95 135.44L86.16 42.84Z" id="bivSBCoWS"></path><path d="M189.64 111.62C197.05 119.33 197.05 131.87 189.64 139.58C182.24 147.3 170.22 147.3 162.82 139.58C155.42 131.87 155.42 119.33 162.82 111.62C170.22 103.9 182.24 103.9 189.64 111.62Z" id="ctrW7se7Y"></path><path d="M129.6 63.64C133.67 63.64 136.97 66.94 136.97 71.01C136.97 93.59 136.97 153.98 136.97 176.56C136.97 180.63 133.67 183.93 129.6 183.93C128.13 183.93 131.08 183.93 129.6 183.93C125.54 183.93 122.24 180.63 122.24 176.56C122.24 153.98 122.24 93.59 122.24 71.01C122.24 66.94 125.54 63.64 129.6 63.64C131.08 63.64 128.13 63.64 129.6 63.64Z" id="b4vJYSfk1"></path><path d="M143.01 161.05C150.42 168.77 150.42 181.3 143.01 189.02C135.61 196.73 123.59 196.73 116.19 189.02C108.79 181.3 108.79 168.77 116.19 161.05C123.59 153.33 135.61 153.33 143.01 161.05Z" id="e11Ax5DdnR"></path><path d="M143.01 63C150.42 70.72 150.42 83.25 143.01 90.97C135.61 98.68 123.59 98.68 116.19 90.97C108.79 83.25 108.79 70.72 116.19 63C123.59 55.28 135.61 55.28 143.01 63Z" id="oDRQC60jN"></path><path d="M63.62 100.08C63.62 100.08 63.12 100.61 62.5 101.25C61.88 101.9 61.38 102.42 61.38 102.42C61.38 102.42 61.88 101.9 62.5 101.25C63.12 100.61 63.4 100.32 63.62 100.08Z" id="h55S1V6eY8"></path><path d="M115.88 174.94C114.83 174.44 114.94 171.91 116.11 169.3C117.28 166.69 119.07 164.98 120.12 165.48C121.16 165.99 121.05 168.52 119.88 171.13C118.71 173.74 116.92 175.45 115.88 174.94Z" id="drB82UMZ4"></path></defs><g><g><g><use xlink:href="#d38hFiLVe" opacity="1" fill="#4fc08d" fill-opacity="1"></use></g><g><use xlink:href="#bivSBCoWS" opacity="1" fill="#ffffff" fill-opacity="1"></use></g><g><use xlink:href="#ctrW7se7Y" opacity="1" fill="#ffffff" fill-opacity="1"></use></g><g><use xlink:href="#b4vJYSfk1" opacity="1" fill="#ffffff" fill-opacity="1"></use></g><g><use xlink:href="#e11Ax5DdnR" opacity="1" fill="#e40c0c" fill-opacity="1"></use></g><g><use xlink:href="#oDRQC60jN" opacity="1" fill="#ffffff" fill-opacity="1"></use></g><g><use xlink:href="#h55S1V6eY8" opacity="1" fill="#d70f86" fill-opacity="1"></use></g><g><use xlink:href="#drB82UMZ4" opacity="1" fill="#ffffff" fill-opacity="1"></use></g></g></g></svg>